<?xml version="1.0" encoding="UTF-8"?>
<!DOCTYPE svg PUBLIC "-//W3C//DTD SVG 1.1//EN" "http://www.w3.org/Graphics/SVG/1.1/DTD/svg11.dtd">
<!-- Creator: CorelDRAW 2020 (64-Bit) -->
<svg xmlns="http://www.w3.org/2000/svg" xml:space="preserve" width="63.8653mm" height="20.5533mm" version="1.1" style="shape-rendering:geometricPrecision; text-rendering:geometricPrecision; image-rendering:optimizeQuality; fill-rule:evenodd; clip-rule:evenodd"
viewBox="0 0 3471.06 1117.06"
 xmlns:xlink="http://www.w3.org/1999/xlink"
 xmlns:xodm="http://www.corel.com/coreldraw/odm/2003">
 <defs>
  <style type="text/css">
   <![CDATA[
    .fil0 {fill:#00AFEF;fill-rule:nonzero}
    .fil2 {fill:#2265D2;fill-rule:nonzero}
    .fil3 {fill:#DDB513;fill-rule:nonzero}
    .fil1 {fill:#FFD82F;fill-rule:nonzero}
   ]]>
  </style>
 </defs>
 <g id="OBJECTS">
  <metadata id="CorelCorpID_0Corel-Layer"/>
  <polygon class="fil0" points="282.82,603.19 -0,12.14 387.08,540.81 675.98,435.2 -0,12.14 53.16,807.82 "/>
  <polygon class="fil1" points="-0,12.14 331.54,628.03 284.09,656.41 406.87,693.63 432.13,567.85 385.93,595.48 "/>
  <path class="fil2" d="M1054.42 203.15l0 112.4 -96.93 0 0 216.72c0,44 0.86,69.61 2.75,76.82 1.89,7.22 6.02,13.23 12.72,18.04 6.53,4.64 14.44,7.05 23.89,7.05 13.23,0 32.14,-4.47 57.06,-13.58l11.86 109.99c-32.83,14.09 -69.95,21.14 -111.54,21.14 -25.44,0 -48.3,-4.3 -68.75,-12.89 -20.45,-8.59 -35.4,-19.77 -44.85,-33.34 -9.63,-13.75 -16.16,-32.14 -19.94,-55.51 -2.92,-16.5 -4.47,-49.84 -4.47,-100.2l0 -234.25 -64.96 0 0 -112.4 64.96 0 0 -106.22 141.28 -83.53 0 189.75 96.93 0zm234.08 535.19l-141.27 0 0 -535.19 130.96 0 0 75.96c22.51,-35.92 42.79,-59.47 60.84,-70.64 18.05,-11.17 38.5,-16.67 61.36,-16.67 32.31,0 63.42,8.94 93.32,26.64l-43.82 123.4c-23.89,-15.47 -46.06,-23.2 -66.51,-23.2 -19.94,0 -36.78,5.5 -50.53,16.33 -13.75,11 -24.58,30.59 -32.48,59.12 -7.9,28.53 -11.86,88.34 -11.86,179.26l0 164.99zm371.41 -370.2l-127.87 -22.69c14.44,-52.25 39.35,-90.92 74.59,-116.01 35.23,-25.09 87.65,-37.64 157.09,-37.64 63.07,0 110.17,7.39 141.1,22.34 30.76,14.96 52.59,33.86 65.14,56.89 12.54,23.03 18.9,65.14 18.9,126.67l-2.06 164.99c0,46.92 2.23,81.63 6.7,103.98 4.47,22.34 12.89,46.24 25.27,71.67l-140.24 0c-3.61,-9.28 -8.25,-23.03 -13.58,-41.25 -2.24,-8.42 -3.96,-13.92 -4.99,-16.5 -24.06,23.72 -49.84,41.42 -77.34,53.28 -27.5,11.86 -56.71,17.88 -87.82,17.88 -54.82,0 -98.13,-14.96 -129.76,-44.86 -31.62,-29.73 -47.44,-67.55 -47.44,-113.26 0,-30.08 7.22,-57.06 21.66,-80.78 14.44,-23.54 34.54,-41.76 60.67,-54.31 25.95,-12.55 63.42,-23.55 112.4,-33 66,-12.38 111.88,-24.06 137.32,-34.72l0 -14.26c0,-27.5 -6.7,-47.09 -20.11,-58.95 -13.58,-11.69 -39.01,-17.53 -76.31,-17.53 -25.27,0 -44.86,4.98 -58.95,15.12 -14.26,9.97 -25.6,27.67 -34.37,52.94zm189.74 114.47c-18.04,6.02 -46.75,13.23 -86.11,21.65 -39.19,8.42 -64.96,16.67 -77,24.58 -18.39,13.23 -27.67,29.73 -27.67,49.84 0,19.94 7.39,36.95 22.17,51.39 14.78,14.44 33.52,21.65 56.38,21.65 25.44,0 49.84,-8.42 73.04,-25.09 17.02,-12.89 28.36,-28.35 33.69,-46.92 3.61,-12.03 5.5,-35.06 5.5,-68.92l0 -28.19zm425.72 255.74l-215.69 -535.19 148.49 0 100.72 273.1 29.22 91.26c7.73,-23.2 12.72,-38.5 14.61,-45.89 4.81,-15.13 9.79,-30.25 15.29,-45.37l102.09 -273.1 145.4 0 -212.6 535.19 -127.53 0zm735.76 -169.12l141.28 23.72c-18.04,51.74 -46.75,91.09 -85.76,118.25 -39.18,26.98 -88.17,40.56 -146.77,40.56 -92.98,0 -161.9,-30.42 -206.41,-91.26 -35.23,-48.81 -52.93,-110.34 -52.93,-184.76 0,-88.68 23.2,-158.29 69.43,-208.47 46.23,-50.36 104.84,-75.45 175.65,-75.45 79.4,0 142.14,26.3 188.2,78.89 45.89,52.59 67.89,133.2 65.82,241.82l-353.7 0c1.03,41.94 12.38,74.59 34.2,97.97 21.65,23.38 48.81,35.06 81.12,35.06 22.17,0 40.73,-6.02 55.69,-18.05 15.12,-12.03 26.46,-31.45 34.2,-58.26zm8.25 -143.34c-1.03,-41.07 -11.51,-72.36 -31.62,-93.67 -20.11,-21.48 -44.51,-32.14 -73.39,-32.14 -30.76,0 -56.2,11.34 -76.31,33.85 -20.11,22.52 -29.91,53.28 -29.57,91.95l210.88 0zm255.91 312.46l0 -738.34 141.28 0 0 738.34 -141.28 0z"/>
  <path class="fil1" d="M319.03 829.14c2.1,15.05 -8.41,28.96 -23.46,31.06 -15.05,2.1 -28.96,-8.4 -31.06,-23.46 -2.1,-15.05 8.4,-28.96 23.46,-31.06 15.05,-2.1 28.96,8.4 31.06,23.46z"/>
  <path class="fil3" d="M1808 1113.52c529.46,20.34 1077.47,-47.29 1416.48,-192.27 117.62,-50.31 198.81,-105.47 246.58,-162.41 -279.84,161.48 -822.42,271.24 -1447.34,271.24 -616.74,0 -1154.07,-106.76 -1437.05,-264.78 289.9,250.03 1221.33,348.22 1221.33,348.22z"/>
 </g>
</svg>
